<svg class="page-header__logo-image" id="logo-adaptive" xmlns="http://www.w3.org/2000/svg" x="0" y="0"><style>.st1{fill:#f06351}</style><path d="M6.1 20.7l.1-2.3c6.7-.9 13.4-1.4 20.2-1.3 0 .6 0 1.2-.1 1.8 0 0 2.9-1.3 6-1.8-2.4-6.3-8.5-10.8-15.6-10.8C8.4 6.3 1.5 12.4.2 20.4c2.2.1 5.9.3 5.9.3zm21.1 3.5c-1.2 1.3-1.4 1.2-1.4 3.5v9.2a16.62 16.62 0 007.1-17c-1.7 1.1-4.7 3.2-5.7 4.3zM6.4 25.7s-3.8-1.4-5.2-1.8L0 23.6c.2 6 3.7 11.3 8.7 14L6.4 25.7z" fill="#fdc305"/><path class="st1" d="M26.3 17.1C26.4 8.6 24.9.6 24.9.6s-.2-1.2-.9-.2c-.7 1.1-1.2 3.9-1.2 3.9-7.4-.4-12.8.3-12.8.3C9.2 2 7.9.8 7.2 1c-.7.3-.7 3.4-.7 3.4l-.4 14.1c6.7-1 13.5-1.4 20.2-1.4z"/><path d="M12.4 14c0-.1 1 .7 1.4.9s.6.4.6.6c0 .2-.3.3-.6.3s-.9-.1-1-.3H14c.1.1-1.3-1-1.6-1.5zm7.5.1s-1 1.3-1.1 1.3c0 .1-.2.3.2.3s1.1-.2 1.2-.3.1-.2-.1-.2-.7 0-1 .1l.8-1.2s.1-.1 0 0zm-3.1 6.1s.8-.4 1.1-1c.3-.7 0-.9-.4-1-.5-.1-1.3 0-1.7.3-.4.4-.3.7-.1 1 .2.2.8.6 1.1.7z"/><path class="st1" d="M16.3 21.5s-.2.4-.5.6c-.2.2-.6.4-1 .4-.6 0-1.1-.2-1.5-.4-.2-.1-.4-.3-.5-.4-.2-.2-.4-.3-.4-.3s.7 4.1 2.6 4.7c1.8.6 2.1-.7 2.2-1.1 0-.3 0-2.1-.8-3.2.1-.4 0-.2-.1-.3z"/><path d="M14.7 22.6c-1.3 0-2.3-1.4-2.3-1.4V21h.2s1 1.3 2.1 1.3c.6 0 1.1-.3 1.6-1l.1-.2.1.2s.4.8 1 .8c.5 0 1.1-.4 1.6-1.3 0-.1.1-.1.2 0 .1 0 .1.1 0 .2-.6 1-1.3 1.4-1.9 1.4s-.9-.5-1.1-.8c-.4.7-1 1-1.6 1z"/><path class="st1" d="M26.2 18.9s-2.5 2.2-5.1 5.2-5.2 4.9-5.2 4.9c-.2-.5-1.6-1.5-1.6-1.5s-3.1-2.1-5.2-3.8c-1.2-1-2.3-2.2-3.1-3-.3 0-1.1-.1-2-.1 4.7 7 12 8.8 12 8.8.9-.1 3.3-1.9 5.1-3.3 1.8-1.4 4.8-4.5 5.9-5.9.6-.7.9-1.4 1.1-2l-1.9.7z"/><g transform="matrix(1.2 0 0 1.2 -15.6 -16.8)">/* cat */<path d="M89.6 37.1c-.7-.9-1-2.1-1-3.7v-5.3c0-1.6.3-2.9 1-3.7.7-.8 1.8-1.3 3.4-1.3 1.5 0 2.6.4 3.2 1.1.6.7.9 1.8.9 3.2v1.3h-2.9v-1.4c0-.4 0-.8-.1-1.1 0-.3-.2-.5-.3-.7-.2-.2-.5-.3-.8-.3-.6 0-.9.2-1.1.5-.2.4-.2.9-.2 1.6v6.8c0 .7.1 1.2.3 1.6.2.3.5.5 1 .5s.8-.2 1-.5c.1-.3.2-.9.2-1.6v-1.5h2.9v1.2c0 1.4-.3 2.5-.9 3.3-.6.8-1.7 1.2-3.2 1.2-1.7.1-2.8-.3-3.4-1.2zm11.5-13.8h3.4l2.9 14.9h-2.8l-.6-3.3h-2.4l-.6 3.3h-2.9l3-14.9zm2.6 9.7l-.9-6-.9 6h1.8zm5.8-7.5h-2.3v-2.2h7.6v2.2h-2.3v12.7h-3.1V25.5z" fill="#111"/>/* energy */<path d="M120.8 23.3h5.8v1.5h-3.7v4.9h3v1.5h-3v5.5h3.7v1.5h-5.8V23.3zm7.5 0h1.4l4.2 9.9v-9.9h1.7v14.9h-1.3L130.1 28v10.2h-1.8V23.3zm9.7 0h5.8v1.5h-3.7v4.9h3v1.5h-3v5.5h3.7v1.5H138V23.3zm7.5 0h3c1.5 0 2.6.3 3.3.9.7.6 1.1 1.6 1.1 3 0 1.9-.6 3.1-1.8 3.5l2.1 7.5h-2l-2-7h-1.6v7h-2.1V23.3zm2.9 6.4c.9 0 1.5-.2 1.9-.5.4-.4.6-1 .6-1.9 0-.6-.1-1.1-.2-1.4-.1-.3-.4-.6-.7-.8-.3-.2-.8-.2-1.5-.2h-.9v4.9h.8zm7.3 7.4c-.6-.9-.9-2.1-.9-3.8v-5c0-1.2.1-2.1.4-2.8.2-.7.7-1.3 1.2-1.7.6-.4 1.4-.6 2.4-.6 1.4 0 2.4.3 3 1 .6.7.9 1.8.9 3.3v.6h-2v-.5c0-.7 0-1.3-.1-1.6-.1-.4-.3-.7-.5-.9-.3-.2-.7-.3-1.2-.3-.6 0-1 .1-1.3.4-.3.3-.5.6-.5 1.1-.1.4-.1 1-.1 1.8v5.5c0 1.1.1 2 .4 2.5.3.5.8.7 1.6.7s1.3-.3 1.6-.8c.3-.5.4-1.4.4-2.6v-1h-2v-1.5h3.8v7.4h-1.3l-.2-1.7c-.5 1.3-1.4 1.9-2.7 1.9-1.3-.1-2.3-.5-2.9-1.4zm11.4-4.2l-3.2-9.6h1.9l2.3 7.2 2.2-7.2h2l-3.2 9.6v5.3h-2v-5.3z" fill="#111"/></g></svg>